<svg width="13" height="14" viewBox="0 0 13 14" fill="none" xmlns="http://www.w3.org/2000/svg">
<path fill-rule="evenodd" clip-rule="evenodd" d="M5.95837 2.43746C3.86429 2.43746 2.16671 4.13505 2.16671 6.22913C2.16671 8.32321 3.86429 10.0208 5.95837 10.0208C8.05245 10.0208 9.75004 8.32321 9.75004 6.22913C9.75004 4.13505 8.05245 2.43746 5.95837 2.43746ZM1.08337 6.22913C1.08337 3.53674 3.26599 1.35413 5.95837 1.35413C8.65076 1.35413 10.8334 3.53674 10.8334 6.22913C10.8334 8.92151 8.65076 11.1041 5.95837 11.1041C3.26599 11.1041 1.08337 8.92151 1.08337 6.22913Z" fill="#B3B3B3"/>
<path fill-rule="evenodd" clip-rule="evenodd" d="M8.63582 8.90651C8.84736 8.69498 9.19032 8.69498 9.40186 8.90651L11.7581 11.2628C11.9696 11.4743 11.9696 11.8173 11.7581 12.0288C11.5466 12.2403 11.2036 12.2403 10.9921 12.0288L8.63582 9.67255C8.42429 9.46101 8.42429 9.11805 8.63582 8.90651Z" fill="#B3B3B3"/>
<path fill-rule="evenodd" clip-rule="evenodd" d="M5.95829 4.06238C6.25745 4.06238 6.49996 4.30489 6.49996 4.60404V7.85404C6.49996 8.1532 6.25745 8.39571 5.95829 8.39571C5.65914 8.39571 5.41663 8.1532 5.41663 7.85404V4.60404C5.41663 4.30489 5.65914 4.06238 5.95829 4.06238Z" fill="#B3B3B3"/>
<path fill-rule="evenodd" clip-rule="evenodd" d="M3.79163 6.22904C3.79163 5.92989 4.03414 5.68738 4.33329 5.68738H7.58329C7.88245 5.68738 8.12496 5.92989 8.12496 6.22904C8.12496 6.5282 7.88245 6.77071 7.58329 6.77071H4.33329C4.03414 6.77071 3.79163 6.5282 3.79163 6.22904Z" fill="#B3B3B3"/>
</svg>
