<svg width="14" height="14" viewBox="0 0 14 14" fill="none" xmlns="http://www.w3.org/2000/svg">
<path fill-rule="evenodd" clip-rule="evenodd" d="M6.50293 2.43746C4.40885 2.43746 2.71126 4.13505 2.71126 6.22913C2.71126 8.32321 4.40885 10.0208 6.50293 10.0208C8.59701 10.0208 10.2946 8.32321 10.2946 6.22913C10.2946 4.13505 8.59701 2.43746 6.50293 2.43746ZM1.62793 6.22913C1.62793 3.53674 3.81054 1.35413 6.50293 1.35413C9.19532 1.35413 11.3779 3.53674 11.3779 6.22913C11.3779 8.92151 9.19532 11.1041 6.50293 11.1041C3.81054 11.1041 1.62793 8.92151 1.62793 6.22913Z" fill="#B3B3B3"/>
<path fill-rule="evenodd" clip-rule="evenodd" d="M9.18038 8.90651C9.39191 8.69498 9.73488 8.69498 9.94641 8.90651L12.3027 11.2628C12.5142 11.4743 12.5142 11.8173 12.3027 12.0288C12.0911 12.2403 11.7482 12.2403 11.5366 12.0288L9.18038 9.67255C8.96884 9.46101 8.96884 9.11805 9.18038 8.90651Z" fill="#B3B3B3"/>
<path fill-rule="evenodd" clip-rule="evenodd" d="M4.33618 6.22904C4.33618 5.92989 4.57869 5.68738 4.87785 5.68738H8.12785C8.427 5.68738 8.66952 5.92989 8.66952 6.22904C8.66952 6.5282 8.427 6.77071 8.12785 6.77071H4.87785C4.57869 6.77071 4.33618 6.5282 4.33618 6.22904Z" fill="#B3B3B3"/>
</svg>
