<?xml version="1.0" encoding="utf-8"?>
<!-- Generator: Adobe Illustrator 25.2.0, SVG Export Plug-In . SVG Version: 6.00 Build 0)  -->
<svg version="1.1" id="Calque_1" xmlns="http://www.w3.org/2000/svg" xmlns:xlink="http://www.w3.org/1999/xlink" x="0px" y="0px"
	 viewBox="0 0 25 26" style="enable-background:new 0 0 25 26;" xml:space="preserve">
<style type="text/css">
	.st0{fill:#E6E6E6;}
</style>
<path class="st0" d="M19,7.36c-0.12-0.05-0.25-0.07-0.38-0.05c-0.13,0.02-0.25,0.07-0.34,0.16l-0.92,0.81
	c-0.62-0.73-1.39-1.32-2.26-1.72c-0.87-0.4-1.82-0.61-2.77-0.61c-1.23,0-2.44,0.34-3.5,0.98C7.78,7.57,6.92,8.49,6.35,9.58
	c-0.57,1.1-0.82,2.33-0.74,3.56c0.08,1.23,0.51,2.42,1.22,3.42c0.71,1.01,1.69,1.8,2.82,2.29c1.13,0.49,2.38,0.66,3.6,0.49
	c1.22-0.17,2.37-0.67,3.33-1.45c0.96-0.78,1.68-1.81,2.09-2.97c0.06-0.17,0.05-0.35-0.03-0.51c-0.08-0.16-0.22-0.28-0.38-0.34
	c-0.17-0.06-0.35-0.05-0.51,0.03c-0.16,0.08-0.28,0.22-0.34,0.38c-0.33,0.93-0.91,1.75-1.67,2.38c-0.77,0.62-1.69,1.02-2.67,1.16
	c-0.98,0.13-1.97,0-2.88-0.39c-0.91-0.39-1.69-1.03-2.25-1.83c-0.57-0.81-0.91-1.75-0.97-2.74c-0.07-0.98,0.14-1.97,0.59-2.85
	C8,9.32,8.69,8.59,9.54,8.08c0.84-0.51,1.81-0.78,2.8-0.78c0.77,0,1.53,0.17,2.23,0.49c0.7,0.32,1.32,0.79,1.81,1.38l-1.12,0.99
	c-0.1,0.09-0.18,0.21-0.21,0.34c-0.03,0.13-0.02,0.27,0.03,0.4c0.05,0.13,0.13,0.24,0.25,0.31c0.11,0.08,0.24,0.12,0.38,0.12h3.03
	c0.18,0,0.35-0.07,0.48-0.2c0.13-0.13,0.2-0.3,0.2-0.48V7.97c0-0.13-0.04-0.26-0.11-0.36C19.22,7.49,19.12,7.41,19,7.36z"/>
</svg>
